# xmcd CD Database Entry
#
# Track frame offsets:
# 150
# 15820
# 25658
# 38780
# 55433
# 69525
# 88135
# 102395
# 116175
#
# Disc length: 1687 seconds
#
# Revision: 1
# Processed by: cddbd v1.5.1PL0 Copyright (c) Steve Scherf et al.
# Submitted via: tcd 2.0b
#
DISCID=70069509
DTITLE=UZUMAKI /JUNKEE FOOD
DYEAR=1900
DGENRE=
TTITLE0=420 S-CRAP
TTITLE1=SLUT RIDING
TTITLE2=KNOCK OUT
TTITLE3=ALMIGHTY
TTITLE4=G.O.D
TTITLE5=BATTLE BON-U$
TTITLE6=FUKULOW
TTITLE7=Nocturnal People
TTITLE8=
EXTD=
EXTT0=
EXTT1=
EXTT2=
EXTT3=
EXTT4=
EXTT5=
EXTT6=
EXTT7=
EXTT8=
PLAYORDER=
